<svg xmlns="http://www.w3.org/2000/svg" xmlns:xlink="http://www.w3.org/1999/xlink" width="550" zoomAndPan="magnify" viewBox="0 0 412.5 112.499997" height="150" preserveAspectRatio="xMidYMid meet" version="1.0"><defs><g/><clipPath id="f0bab7a132"><path d="M 12 9.707031 L 108 9.707031 L 108 103.042969 L 12 103.042969 Z M 12 9.707031 " clip-rule="nonzero"/></clipPath></defs><g clip-path="url(#f0bab7a132)"><path fill="#265077" d="M 67.667969 10.628906 C 65.105469 12.613281 60.152344 16.75 60.152344 16.90625 C 60.152344 17 61.257812 18.167969 62.609375 19.496094 C 65.320312 22.167969 67.132812 25.222656 68.34375 29.179688 C 69.738281 33.726562 69.71875 41.570312 68.300781 45.746094 L 67.601562 47.8125 L 67.191406 44.179688 C 66.171875 35.082031 63.488281 28.96875 57.875 22.945312 C 57.105469 22.121094 56.265625 21.445312 56.007812 21.445312 C 55.542969 21.445312 48.503906 26.605469 46.785156 28.207031 L 45.894531 29.039062 L 47.550781 30.847656 C 50.738281 34.328125 52.953125 38.5 53.867188 42.757812 C 54.4375 45.417969 54.355469 51.695312 53.710938 54.671875 C 52.296875 61.199219 48.546875 67.9375 43.183594 73.570312 C 38.902344 78.074219 34.375 81.390625 28.234375 84.53125 C 24.21875 86.585938 21.617188 87.5625 16.257812 89.03125 C 14.261719 89.578125 12.492188 90.15625 12.328125 90.3125 C 11.507812 91.097656 21.734375 90.191406 27.023438 89.015625 C 37.035156 86.785156 47.617188 81.628906 55.574219 75.101562 C 61.300781 70.402344 66.613281 63.554688 70.007812 56.496094 C 73.007812 50.25 74.085938 46.304688 74.230469 41.050781 L 74.328125 37.445312 L 76.792969 36.148438 C 81.105469 33.882812 80.921875 34.097656 80.628906 31.628906 C 79.832031 24.878906 78.359375 20.574219 75.304688 16.074219 C 74.03125 14.191406 69.699219 9.761719 69.136719 9.761719 C 68.945312 9.761719 68.285156 10.152344 67.667969 10.628906 M 91.703125 26.351562 C 90.066406 27.851562 87.90625 29.667969 86.898438 30.390625 C 85.429688 31.4375 85.101562 31.824219 85.253906 32.335938 C 86.4375 36.253906 86.792969 39.195312 86.785156 44.96875 C 86.777344 51.597656 86.34375 55.128906 84.789062 61.261719 C 83.621094 65.855469 82.683594 68.378906 80.636719 72.425781 C 77.34375 78.929688 72.398438 85.28125 67.414062 89.394531 C 62.742188 93.253906 53.28125 98.335938 47.679688 100 C 45.308594 100.703125 39.59375 102 36.003906 102.652344 C 33.894531 103.035156 33.847656 103.0625 34.898438 103.296875 C 35.5 103.433594 36.492188 103.460938 37.097656 103.359375 C 37.703125 103.257812 53.710938 103.132812 72.671875 103.082031 C 91.628906 103.03125 107.320312 102.878906 107.539062 102.746094 C 107.851562 102.554688 107.882812 96.699219 107.707031 74.367188 C 107.492188 47.839844 107.335938 42 106.828125 41.488281 C 106.710938 41.371094 105.34375 41.574219 103.789062 41.9375 C 100.5625 42.695312 99.308594 42.773438 99.304688 42.207031 C 99.285156 39.929688 98.519531 33.679688 98.003906 31.582031 C 97.273438 28.625 95.773438 24.71875 95.109375 24.054688 C 94.738281 23.6875 94.222656 24.035156 91.703125 26.351562 M 35.855469 37.328125 C 33.355469 38.769531 31.175781 40.160156 31.011719 40.417969 C 30.792969 40.761719 31.058594 41.425781 31.988281 42.859375 C 35.777344 48.726562 37.132812 56.335938 35.515625 62.683594 C 33.367188 71.121094 26.316406 79.183594 16.867188 84.011719 C 14.199219 85.371094 13.730469 85.710938 14.394531 85.792969 C 15.542969 85.9375 23.585938 83 28.101562 80.789062 C 38.074219 75.902344 45.425781 67.375 47.535156 58.242188 C 49.089844 51.507812 47.515625 43.476562 43.40625 37.222656 C 42.195312 35.371094 41.578125 34.707031 41.078125 34.707031 C 40.707031 34.707031 38.355469 35.886719 35.855469 37.328125 " fill-opacity="1" fill-rule="evenodd"/></g><g fill="#265077" fill-opacity="1"><g transform="translate(120.132741, 89.273398)"><g><path d="M 0.53125 0 L 7.9375 -18.40625 L 10.828125 -18.40625 L 18.21875 0 L 14.421875 0 L 8.71875 -15.09375 L 10.03125 -15.09375 L 4.234375 0 Z M 4.453125 -3.421875 L 4.453125 -6.40625 L 14.34375 -6.40625 L 14.34375 -3.421875 Z M 4.453125 -3.421875 "/></g></g></g><g fill="#265077" fill-opacity="1"><g transform="translate(146.489091, 89.273398)"><g><path d="M 4.3125 0 L 4.3125 -3.171875 L 9 -3.171875 C 10.1875 -3.171875 11.222656 -3.414062 12.109375 -3.90625 C 13.003906 -4.40625 13.695312 -5.109375 14.1875 -6.015625 C 14.6875 -6.921875 14.9375 -7.992188 14.9375 -9.234375 C 14.9375 -10.441406 14.679688 -11.492188 14.171875 -12.390625 C 13.671875 -13.285156 12.972656 -13.984375 12.078125 -14.484375 C 11.191406 -14.984375 10.164062 -15.234375 9 -15.234375 L 4.234375 -15.234375 L 4.234375 -18.40625 L 9.0625 -18.40625 C 10.414062 -18.40625 11.671875 -18.175781 12.828125 -17.71875 C 13.992188 -17.257812 15.007812 -16.613281 15.875 -15.78125 C 16.738281 -14.957031 17.410156 -13.988281 17.890625 -12.875 C 18.367188 -11.757812 18.609375 -10.539062 18.609375 -9.21875 C 18.609375 -7.882812 18.367188 -6.65625 17.890625 -5.53125 C 17.410156 -4.40625 16.742188 -3.425781 15.890625 -2.59375 C 15.035156 -1.769531 14.023438 -1.128906 12.859375 -0.671875 C 11.703125 -0.222656 10.453125 0 9.109375 0 Z M 1.890625 0 L 1.890625 -18.40625 L 5.4375 -18.40625 L 5.4375 0 Z M 1.890625 0 "/></g></g></g><g fill="#265077" fill-opacity="1"><g transform="translate(173.892284, 89.273398)"><g><path d="M 7.765625 0 L 0.53125 -18.40625 L 4.375 -18.40625 L 9.96875 -3.5 L 8.484375 -3.5 L 14.140625 -18.40625 L 17.921875 -18.40625 L 10.59375 0 Z M 7.765625 0 "/></g></g></g><g fill="#265077" fill-opacity="1"><g transform="translate(200.196384, 89.273398)"><g><path d="M 1.890625 0 L 1.890625 -18.40625 L 5.4375 -18.40625 L 5.4375 0 Z M 1.890625 0 "/></g></g></g><g fill="#265077" fill-opacity="1"><g transform="translate(215.012237, 89.273398)"><g><path d="M 7.21875 0.265625 C 5.738281 0.265625 4.46875 0.015625 3.40625 -0.484375 C 2.351562 -0.992188 1.398438 -1.757812 0.546875 -2.78125 L 2.90625 -5.125 C 3.445312 -4.414062 4.070312 -3.863281 4.78125 -3.46875 C 5.5 -3.070312 6.375 -2.875 7.40625 -2.875 C 8.332031 -2.875 9.066406 -3.054688 9.609375 -3.421875 C 10.160156 -3.796875 10.4375 -4.304688 10.4375 -4.953125 C 10.4375 -5.503906 10.28125 -5.953125 9.96875 -6.296875 C 9.65625 -6.648438 9.238281 -6.945312 8.71875 -7.1875 C 8.207031 -7.4375 7.640625 -7.660156 7.015625 -7.859375 C 6.398438 -8.066406 5.78125 -8.300781 5.15625 -8.5625 C 4.539062 -8.820312 3.976562 -9.144531 3.46875 -9.53125 C 2.957031 -9.925781 2.539062 -10.429688 2.21875 -11.046875 C 1.90625 -11.671875 1.75 -12.457031 1.75 -13.40625 C 1.75 -14.519531 2.019531 -15.46875 2.5625 -16.25 C 3.101562 -17.039062 3.84375 -17.644531 4.78125 -18.0625 C 5.726562 -18.476562 6.796875 -18.6875 7.984375 -18.6875 C 9.234375 -18.6875 10.363281 -18.453125 11.375 -17.984375 C 12.394531 -17.515625 13.226562 -16.898438 13.875 -16.140625 L 11.515625 -13.796875 C 10.972656 -14.390625 10.414062 -14.820312 9.84375 -15.09375 C 9.28125 -15.375 8.644531 -15.515625 7.9375 -15.515625 C 7.113281 -15.515625 6.460938 -15.359375 5.984375 -15.046875 C 5.515625 -14.734375 5.28125 -14.28125 5.28125 -13.6875 C 5.28125 -13.175781 5.4375 -12.765625 5.75 -12.453125 C 6.070312 -12.140625 6.488281 -11.867188 7 -11.640625 C 7.507812 -11.421875 8.070312 -11.203125 8.6875 -10.984375 C 9.3125 -10.773438 9.929688 -10.539062 10.546875 -10.28125 C 11.171875 -10.019531 11.738281 -9.679688 12.25 -9.265625 C 12.769531 -8.847656 13.1875 -8.3125 13.5 -7.65625 C 13.8125 -7 13.96875 -6.191406 13.96875 -5.234375 C 13.96875 -3.523438 13.363281 -2.179688 12.15625 -1.203125 C 10.957031 -0.222656 9.3125 0.265625 7.21875 0.265625 Z M 7.21875 0.265625 "/></g></g></g><g fill="#265077" fill-opacity="1"><g transform="translate(237.914446, 89.273398)"><g><path d="M 10.5 0.28125 C 9.15625 0.28125 7.898438 0.0390625 6.734375 -0.4375 C 5.578125 -0.925781 4.566406 -1.601562 3.703125 -2.46875 C 2.835938 -3.332031 2.160156 -4.34375 1.671875 -5.5 C 1.179688 -6.664062 0.9375 -7.910156 0.9375 -9.234375 C 0.9375 -10.566406 1.175781 -11.800781 1.65625 -12.9375 C 2.132812 -14.082031 2.804688 -15.085938 3.671875 -15.953125 C 4.535156 -16.816406 5.539062 -17.488281 6.6875 -17.96875 C 7.84375 -18.445312 9.09375 -18.6875 10.4375 -18.6875 C 11.800781 -18.6875 13.054688 -18.445312 14.203125 -17.96875 C 15.359375 -17.488281 16.367188 -16.816406 17.234375 -15.953125 C 18.097656 -15.085938 18.773438 -14.078125 19.265625 -12.921875 C 19.753906 -11.773438 20 -10.539062 20 -9.21875 C 20 -7.882812 19.753906 -6.640625 19.265625 -5.484375 C 18.773438 -4.335938 18.097656 -3.332031 17.234375 -2.46875 C 16.367188 -1.601562 15.363281 -0.925781 14.21875 -0.4375 C 13.082031 0.0390625 11.84375 0.28125 10.5 0.28125 Z M 10.4375 -3.03125 C 11.625 -3.03125 12.65625 -3.289062 13.53125 -3.8125 C 14.40625 -4.34375 15.085938 -5.066406 15.578125 -5.984375 C 16.078125 -6.910156 16.328125 -7.992188 16.328125 -9.234375 C 16.328125 -10.140625 16.1875 -10.96875 15.90625 -11.71875 C 15.632812 -12.46875 15.234375 -13.117188 14.703125 -13.671875 C 14.179688 -14.222656 13.5625 -14.644531 12.84375 -14.9375 C 12.132812 -15.238281 11.332031 -15.390625 10.4375 -15.390625 C 9.289062 -15.390625 8.273438 -15.128906 7.390625 -14.609375 C 6.515625 -14.097656 5.828125 -13.378906 5.328125 -12.453125 C 4.828125 -11.535156 4.578125 -10.460938 4.578125 -9.234375 C 4.578125 -8.316406 4.71875 -7.472656 5 -6.703125 C 5.289062 -5.929688 5.691406 -5.273438 6.203125 -4.734375 C 6.722656 -4.191406 7.34375 -3.769531 8.0625 -3.46875 C 8.789062 -3.175781 9.582031 -3.03125 10.4375 -3.03125 Z M 10.4375 -3.03125 "/></g></g></g><g fill="#265077" fill-opacity="1"><g transform="translate(266.704586, 89.273398)"><g><path d="M 4.5 -7.6875 L 4.5 -10.46875 L 8.765625 -10.46875 C 9.640625 -10.46875 10.316406 -10.6875 10.796875 -11.125 C 11.273438 -11.570312 11.515625 -12.191406 11.515625 -12.984375 C 11.515625 -13.691406 11.273438 -14.285156 10.796875 -14.765625 C 10.316406 -15.253906 9.640625 -15.5 8.765625 -15.5 L 4.5 -15.5 L 4.5 -18.40625 L 9.078125 -18.40625 C 10.265625 -18.40625 11.304688 -18.171875 12.203125 -17.703125 C 13.109375 -17.242188 13.804688 -16.613281 14.296875 -15.8125 C 14.796875 -15.007812 15.046875 -14.082031 15.046875 -13.03125 C 15.046875 -11.945312 14.796875 -11.007812 14.296875 -10.21875 C 13.804688 -9.425781 13.101562 -8.804688 12.1875 -8.359375 C 11.28125 -7.910156 10.226562 -7.6875 9.03125 -7.6875 Z M 1.890625 0 L 1.890625 -18.40625 L 5.4375 -18.40625 L 5.4375 0 Z M 11.9375 0 L 5.859375 -7.953125 L 9.140625 -8.984375 L 16.25 0 Z M 11.9375 0 "/></g></g></g><g fill="#265077" fill-opacity="1"><g transform="translate(290.469997, 89.273398)"><g><path d="M 7.21875 0.265625 C 5.738281 0.265625 4.46875 0.015625 3.40625 -0.484375 C 2.351562 -0.992188 1.398438 -1.757812 0.546875 -2.78125 L 2.90625 -5.125 C 3.445312 -4.414062 4.070312 -3.863281 4.78125 -3.46875 C 5.5 -3.070312 6.375 -2.875 7.40625 -2.875 C 8.332031 -2.875 9.066406 -3.054688 9.609375 -3.421875 C 10.160156 -3.796875 10.4375 -4.304688 10.4375 -4.953125 C 10.4375 -5.503906 10.28125 -5.953125 9.96875 -6.296875 C 9.65625 -6.648438 9.238281 -6.945312 8.71875 -7.1875 C 8.207031 -7.4375 7.640625 -7.660156 7.015625 -7.859375 C 6.398438 -8.066406 5.78125 -8.300781 5.15625 -8.5625 C 4.539062 -8.820312 3.976562 -9.144531 3.46875 -9.53125 C 2.957031 -9.925781 2.539062 -10.429688 2.21875 -11.046875 C 1.90625 -11.671875 1.75 -12.457031 1.75 -13.40625 C 1.75 -14.519531 2.019531 -15.46875 2.5625 -16.25 C 3.101562 -17.039062 3.84375 -17.644531 4.78125 -18.0625 C 5.726562 -18.476562 6.796875 -18.6875 7.984375 -18.6875 C 9.234375 -18.6875 10.363281 -18.453125 11.375 -17.984375 C 12.394531 -17.515625 13.226562 -16.898438 13.875 -16.140625 L 11.515625 -13.796875 C 10.972656 -14.390625 10.414062 -14.820312 9.84375 -15.09375 C 9.28125 -15.375 8.644531 -15.515625 7.9375 -15.515625 C 7.113281 -15.515625 6.460938 -15.359375 5.984375 -15.046875 C 5.515625 -14.734375 5.28125 -14.28125 5.28125 -13.6875 C 5.28125 -13.175781 5.4375 -12.765625 5.75 -12.453125 C 6.070312 -12.140625 6.488281 -11.867188 7 -11.640625 C 7.507812 -11.421875 8.070312 -11.203125 8.6875 -10.984375 C 9.3125 -10.773438 9.929688 -10.539062 10.546875 -10.28125 C 11.171875 -10.019531 11.738281 -9.679688 12.25 -9.265625 C 12.769531 -8.847656 13.1875 -8.3125 13.5 -7.65625 C 13.8125 -7 13.96875 -6.191406 13.96875 -5.234375 C 13.96875 -3.523438 13.363281 -2.179688 12.15625 -1.203125 C 10.957031 -0.222656 9.3125 0.265625 7.21875 0.265625 Z M 7.21875 0.265625 "/></g></g></g><g fill="#265077" fill-opacity="1"><g transform="translate(120.132741, 53.701324)"><g><path d="M 18.203125 0.5 C 15.867188 0.5 13.679688 0.078125 11.640625 -0.765625 C 9.597656 -1.617188 7.820312 -2.789062 6.3125 -4.28125 C 4.800781 -5.78125 3.613281 -7.535156 2.75 -9.546875 C 1.882812 -11.566406 1.453125 -13.738281 1.453125 -16.0625 C 1.453125 -18.394531 1.890625 -20.5625 2.765625 -22.5625 C 3.640625 -24.5625 4.859375 -26.304688 6.421875 -27.796875 C 7.984375 -29.296875 9.804688 -30.460938 11.890625 -31.296875 C 13.984375 -32.128906 16.222656 -32.546875 18.609375 -32.546875 C 21.359375 -32.546875 23.859375 -32.046875 26.109375 -31.046875 C 28.367188 -30.046875 30.242188 -28.671875 31.734375 -26.921875 L 26.875 -22.0625 C 25.84375 -23.394531 24.628906 -24.390625 23.234375 -25.046875 C 21.847656 -25.710938 20.273438 -26.046875 18.515625 -26.046875 C 16.640625 -26.046875 14.957031 -25.628906 13.46875 -24.796875 C 11.988281 -23.972656 10.832031 -22.8125 10 -21.3125 C 9.175781 -19.8125 8.765625 -18.0625 8.765625 -16.0625 C 8.765625 -14.070312 9.171875 -12.316406 9.984375 -10.796875 C 10.804688 -9.285156 11.925781 -8.101562 13.34375 -7.25 C 14.769531 -6.40625 16.40625 -5.984375 18.25 -5.984375 C 20.125 -5.984375 21.71875 -6.335938 23.03125 -7.046875 C 24.351562 -7.765625 25.367188 -8.796875 26.078125 -10.140625 C 26.785156 -11.492188 27.140625 -13.132812 27.140625 -15.0625 L 31.859375 -11.890625 L 17.5625 -12.125 L 17.5625 -18.15625 L 34.40625 -18.15625 L 34.40625 -17.109375 C 34.40625 -13.265625 33.71875 -10.035156 32.34375 -7.421875 C 30.96875 -4.804688 29.0625 -2.832031 26.625 -1.5 C 24.1875 -0.164062 21.378906 0.5 18.203125 0.5 Z M 18.203125 0.5 "/></g></g></g><g fill="#265077" fill-opacity="1"><g transform="translate(155.768581, 53.701324)"><g><path d="M 2.453125 0 L 2.453125 -22.0625 L 9.390625 -22.0625 L 9.390625 0 Z M 9.390625 -12.125 L 6.484375 -14.390625 C 7.066406 -16.960938 8.035156 -18.957031 9.390625 -20.375 C 10.753906 -21.800781 12.644531 -22.515625 15.0625 -22.515625 C 16.125 -22.515625 17.054688 -22.351562 17.859375 -22.03125 C 18.660156 -21.71875 19.363281 -21.226562 19.96875 -20.5625 L 15.84375 -15.34375 C 15.539062 -15.675781 15.160156 -15.929688 14.703125 -16.109375 C 14.253906 -16.296875 13.738281 -16.390625 13.15625 -16.390625 C 12.007812 -16.390625 11.09375 -16.03125 10.40625 -15.3125 C 9.726562 -14.601562 9.390625 -13.539062 9.390625 -12.125 Z M 9.390625 -12.125 "/></g></g></g><g fill="#265077" fill-opacity="1"><g transform="translate(174.517044, 53.701324)"><g><path d="M 13.078125 0.5 C 10.804688 0.5 8.753906 -0.00390625 6.921875 -1.015625 C 5.085938 -2.035156 3.640625 -3.421875 2.578125 -5.171875 C 1.523438 -6.929688 1 -8.898438 1 -11.078125 C 1 -13.253906 1.523438 -15.203125 2.578125 -16.921875 C 3.640625 -18.648438 5.078125 -20.019531 6.890625 -21.03125 C 8.710938 -22.050781 10.773438 -22.5625 13.078125 -22.5625 C 15.367188 -22.5625 17.421875 -22.0625 19.234375 -21.0625 C 21.054688 -20.0625 22.492188 -18.691406 23.546875 -16.953125 C 24.609375 -15.210938 25.140625 -13.253906 25.140625 -11.078125 C 25.140625 -8.898438 24.609375 -6.929688 23.546875 -5.171875 C 22.492188 -3.421875 21.054688 -2.035156 19.234375 -1.015625 C 17.421875 -0.00390625 15.367188 0.5 13.078125 0.5 Z M 13.078125 -5.8125 C 14.078125 -5.8125 14.953125 -6.03125 15.703125 -6.46875 C 16.460938 -6.90625 17.046875 -7.523438 17.453125 -8.328125 C 17.859375 -9.128906 18.0625 -10.046875 18.0625 -11.078125 C 18.0625 -12.109375 17.847656 -13.007812 17.421875 -13.78125 C 17.003906 -14.550781 16.425781 -15.15625 15.6875 -15.59375 C 14.945312 -16.03125 14.078125 -16.25 13.078125 -16.25 C 12.109375 -16.25 11.242188 -16.03125 10.484375 -15.59375 C 9.722656 -15.15625 9.128906 -14.539062 8.703125 -13.75 C 8.285156 -12.96875 8.078125 -12.0625 8.078125 -11.03125 C 8.078125 -10.03125 8.285156 -9.128906 8.703125 -8.328125 C 9.128906 -7.523438 9.722656 -6.90625 10.484375 -6.46875 C 11.242188 -6.03125 12.109375 -5.8125 13.078125 -5.8125 Z M 13.078125 -5.8125 "/></g></g></g><g fill="#265077" fill-opacity="1"><g transform="translate(200.211139, 53.701324)"><g><path d="M 7.859375 0 L 0.234375 -22.0625 L 7.03125 -22.0625 L 11.75 -6.03125 L 9.765625 -5.984375 L 14.984375 -22.0625 L 20.609375 -22.0625 L 25.875 -5.984375 L 23.828125 -6.03125 L 28.59375 -22.0625 L 35.40625 -22.0625 L 27.78125 0 L 22.109375 0 L 16.96875 -15.25 L 18.703125 -15.25 L 13.484375 0 Z M 7.859375 0 "/></g></g></g><g fill="#265077" fill-opacity="1"><g transform="translate(235.846979, 53.701324)"><g><path d="M 5.578125 0 L 5.578125 -31.1875 L 12.53125 -31.1875 L 12.53125 0 Z M 0.59375 -16.15625 L 0.59375 -22.0625 L 17.515625 -22.0625 L 17.515625 -16.15625 Z M 0.59375 -16.15625 "/></g></g></g><g fill="#265077" fill-opacity="1"><g transform="translate(253.959973, 53.701324)"><g><path d="M 17.015625 0 L 17.015625 -12.578125 C 17.015625 -13.722656 16.660156 -14.648438 15.953125 -15.359375 C 15.242188 -16.078125 14.34375 -16.4375 13.25 -16.4375 C 12.5 -16.4375 11.832031 -16.273438 11.25 -15.953125 C 10.675781 -15.640625 10.222656 -15.1875 9.890625 -14.59375 C 9.554688 -14 9.390625 -13.328125 9.390625 -12.578125 L 6.71875 -13.890625 C 6.71875 -15.617188 7.078125 -17.128906 7.796875 -18.421875 C 8.523438 -19.722656 9.539062 -20.726562 10.84375 -21.4375 C 12.144531 -22.15625 13.644531 -22.515625 15.34375 -22.515625 C 17.0625 -22.515625 18.570312 -22.15625 19.875 -21.4375 C 21.175781 -20.726562 22.179688 -19.742188 22.890625 -18.484375 C 23.609375 -17.234375 23.96875 -15.773438 23.96875 -14.109375 L 23.96875 0 Z M 2.453125 0 L 2.453125 -32.953125 L 9.390625 -32.953125 L 9.390625 0 Z M 2.453125 0 "/></g></g></g><g fill="#265077" fill-opacity="1"><g transform="translate(279.926462, 53.701324)"><g><path d="M 11.078125 0 L 0.765625 -32.046875 L 7.859375 -32.046875 L 15.390625 -7.40625 L 12.625 -7.40625 L 19.96875 -32.046875 L 25.5625 -32.046875 L 32.90625 -7.40625 L 30.1875 -7.40625 L 37.671875 -32.046875 L 44.703125 -32.046875 L 34.40625 0 L 28.828125 0 L 21.421875 -24.640625 L 24.0625 -24.640625 L 16.65625 0 Z M 11.078125 0 "/></g></g></g><g fill="#265077" fill-opacity="1"><g transform="translate(322.55312, 53.701324)"><g><path d="M 11.671875 0.453125 C 9.640625 0.453125 7.828125 -0.046875 6.234375 -1.046875 C 4.648438 -2.046875 3.394531 -3.40625 2.46875 -5.125 C 1.550781 -6.851562 1.09375 -8.820312 1.09375 -11.03125 C 1.09375 -13.238281 1.550781 -15.203125 2.46875 -16.921875 C 3.394531 -18.648438 4.648438 -20.015625 6.234375 -21.015625 C 7.828125 -22.015625 9.640625 -22.515625 11.671875 -22.515625 C 13.148438 -22.515625 14.484375 -22.222656 15.671875 -21.640625 C 16.867188 -21.066406 17.847656 -20.273438 18.609375 -19.265625 C 19.367188 -18.253906 19.789062 -17.097656 19.875 -15.796875 L 19.875 -6.265625 C 19.789062 -4.960938 19.375 -3.800781 18.625 -2.78125 C 17.882812 -1.769531 16.910156 -0.976562 15.703125 -0.40625 C 14.492188 0.164062 13.148438 0.453125 11.671875 0.453125 Z M 13.078125 -5.8125 C 14.554688 -5.8125 15.75 -6.300781 16.65625 -7.28125 C 17.5625 -8.269531 18.015625 -9.519531 18.015625 -11.03125 C 18.015625 -12.0625 17.8125 -12.96875 17.40625 -13.75 C 17 -14.539062 16.425781 -15.15625 15.6875 -15.59375 C 14.945312 -16.03125 14.09375 -16.25 13.125 -16.25 C 12.15625 -16.25 11.296875 -16.03125 10.546875 -15.59375 C 9.804688 -15.15625 9.21875 -14.539062 8.78125 -13.75 C 8.34375 -12.96875 8.125 -12.0625 8.125 -11.03125 C 8.125 -10.03125 8.332031 -9.132812 8.75 -8.34375 C 9.175781 -7.5625 9.769531 -6.941406 10.53125 -6.484375 C 11.289062 -6.035156 12.140625 -5.8125 13.078125 -5.8125 Z M 17.75 0 L 17.75 -5.953125 L 18.796875 -11.296875 L 17.75 -16.65625 L 17.75 -22.0625 L 24.5625 -22.0625 L 24.5625 0 Z M 17.75 0 "/></g></g></g><g fill="#265077" fill-opacity="1"><g transform="translate(349.563716, 53.701324)"><g><path d="M 9.390625 0 L 0.046875 -22.0625 L 7.53125 -22.0625 L 13.890625 -3.671875 L 10.625 -3.671875 L 16.96875 -22.0625 L 24.328125 -22.0625 L 14.984375 0 Z M 9.390625 0 "/></g></g></g><g fill="#265077" fill-opacity="1"><g transform="translate(373.351196, 53.701324)"><g><path d="M 13.34375 0.5 C 10.957031 0.5 8.832031 0.0078125 6.96875 -0.96875 C 5.101562 -1.957031 3.640625 -3.328125 2.578125 -5.078125 C 1.523438 -6.835938 1 -8.820312 1 -11.03125 C 1 -13.238281 1.519531 -15.210938 2.5625 -16.953125 C 3.601562 -18.691406 5.015625 -20.0625 6.796875 -21.0625 C 8.585938 -22.0625 10.601562 -22.5625 12.84375 -22.5625 C 15.019531 -22.5625 16.941406 -22.09375 18.609375 -21.15625 C 20.273438 -20.21875 21.582031 -18.914062 22.53125 -17.25 C 23.488281 -15.582031 23.96875 -13.675781 23.96875 -11.53125 C 23.96875 -11.132812 23.941406 -10.71875 23.890625 -10.28125 C 23.847656 -9.84375 23.769531 -9.335938 23.65625 -8.765625 L 4.625 -8.71875 L 4.625 -13.484375 L 20.703125 -13.53125 L 17.703125 -11.53125 C 17.671875 -12.800781 17.472656 -13.851562 17.109375 -14.6875 C 16.742188 -15.519531 16.207031 -16.15625 15.5 -16.59375 C 14.789062 -17.03125 13.921875 -17.25 12.890625 -17.25 C 11.796875 -17.25 10.847656 -17 10.046875 -16.5 C 9.242188 -16 8.625 -15.296875 8.1875 -14.390625 C 7.75 -13.484375 7.53125 -12.378906 7.53125 -11.078125 C 7.53125 -9.773438 7.765625 -8.660156 8.234375 -7.734375 C 8.703125 -6.816406 9.367188 -6.109375 10.234375 -5.609375 C 11.097656 -5.109375 12.117188 -4.859375 13.296875 -4.859375 C 14.390625 -4.859375 15.375 -5.046875 16.25 -5.421875 C 17.125 -5.796875 17.894531 -6.363281 18.5625 -7.125 L 22.375 -3.3125 C 21.289062 -2.039062 19.972656 -1.085938 18.421875 -0.453125 C 16.878906 0.179688 15.1875 0.5 13.34375 0.5 Z M 13.34375 0.5 "/></g></g></g></svg>