<svg xmlns="http://www.w3.org/2000/svg" xmlns:xlink="http://www.w3.org/1999/xlink" width="512" zoomAndPan="magnify" viewBox="0 0 384 383.999986" height="512" preserveAspectRatio="xMidYMid meet" version="1.0"><defs><clipPath id="68a7b706cd"><path d="M 28 32.191406 L 356 32.191406 L 356 351.691406 L 28 351.691406 Z M 28 32.191406 " clip-rule="nonzero"/></clipPath></defs><rect x="-38.4" width="460.8" fill="#ffffff" y="-38.399999" height="460.799983" fill-opacity="1"/><rect x="-38.4" width="460.8" fill="#265077" y="-38.399999" height="460.799983" fill-opacity="1"/><g clip-path="url(#68a7b706cd)"><path fill="#ffffff" d="M 218.214844 35.351562 C 209.425781 42.152344 192.441406 56.339844 192.441406 56.878906 C 192.441406 57.199219 196.238281 61.191406 200.871094 65.757812 C 210.167969 74.910156 216.375 85.386719 220.527344 98.945312 C 225.304688 114.535156 225.238281 141.433594 220.382812 155.746094 L 217.980469 162.832031 L 216.582031 150.382812 C 213.078125 119.191406 203.882812 98.234375 184.632812 77.574219 C 181.996094 74.746094 179.117188 72.433594 178.234375 72.433594 C 176.640625 72.433594 152.511719 90.125 146.617188 95.617188 L 143.554688 98.46875 L 149.238281 104.667969 C 160.171875 116.597656 167.757812 130.898438 170.890625 145.511719 C 172.847656 154.617188 172.566406 176.152344 170.359375 186.351562 C 165.515625 208.734375 152.652344 231.832031 134.273438 251.144531 C 119.582031 266.582031 104.0625 277.960938 83.015625 288.722656 C 69.242188 295.765625 60.328125 299.113281 41.953125 304.152344 C 35.105469 306.03125 29.042969 308.007812 28.476562 308.550781 C 25.664062 311.234375 60.722656 308.136719 78.855469 304.097656 C 113.191406 296.449219 149.472656 278.773438 176.746094 256.398438 C 196.382812 240.289062 214.597656 216.808594 226.230469 192.605469 C 236.523438 171.1875 240.21875 157.671875 240.707031 139.644531 L 241.039062 127.285156 L 249.492188 122.84375 C 264.277344 115.070312 263.648438 115.8125 262.648438 107.347656 C 259.914062 84.210938 254.863281 69.441406 244.398438 54.015625 C 240.023438 47.566406 225.171875 32.375 223.242188 32.375 C 222.59375 32.375 220.328125 33.710938 218.214844 35.351562 M 300.613281 89.253906 C 295.007812 94.398438 287.59375 100.628906 284.136719 103.097656 C 279.105469 106.691406 277.984375 108.023438 278.511719 109.769531 C 282.5625 123.207031 283.785156 133.289062 283.753906 153.089844 C 283.722656 175.816406 282.238281 187.921875 276.90625 208.949219 C 272.914062 224.695312 269.695312 233.34375 262.671875 247.226562 C 251.390625 269.523438 234.425781 291.296875 217.34375 305.402344 C 201.328125 318.628906 168.890625 336.058594 149.679688 341.761719 C 141.554688 344.171875 121.964844 348.621094 109.648438 350.851562 C 102.417969 352.160156 102.257812 352.253906 105.859375 353.0625 C 107.925781 353.527344 111.320312 353.625 113.394531 353.277344 C 115.472656 352.929688 170.355469 352.5 235.363281 352.328125 C 300.367188 352.152344 354.160156 351.632812 354.902344 351.175781 C 355.976562 350.511719 356.09375 330.441406 355.480469 253.878906 C 354.753906 162.929688 354.21875 142.90625 352.472656 141.160156 C 352.070312 140.753906 347.382812 141.445312 342.058594 142.695312 C 330.988281 145.296875 326.695312 145.550781 326.679688 143.617188 C 326.617188 135.8125 323.992188 114.378906 322.21875 107.191406 C 319.71875 97.046875 314.566406 83.660156 312.292969 81.386719 C 311.027344 80.121094 309.261719 81.3125 300.613281 89.253906 M 109.140625 126.882812 C 100.566406 131.824219 93.09375 136.59375 92.53125 137.484375 C 91.789062 138.664062 92.699219 140.945312 95.878906 145.859375 C 108.875 165.96875 113.523438 192.054688 107.980469 213.816406 C 100.613281 242.746094 76.441406 270.390625 44.035156 286.9375 C 34.890625 291.609375 33.285156 292.765625 35.558594 293.050781 C 39.503906 293.546875 67.078125 283.480469 82.554688 275.894531 C 116.75 259.136719 141.949219 229.902344 149.183594 198.597656 C 154.519531 175.5 149.117188 147.972656 135.035156 126.523438 C 130.875 120.183594 128.761719 117.902344 127.050781 117.902344 C 125.773438 117.902344 117.710938 121.945312 109.140625 126.882812 " fill-opacity="1" fill-rule="evenodd"/></g></svg>