<svg xmlns="http://www.w3.org/2000/svg" xmlns:xlink="http://www.w3.org/1999/xlink" width="550" zoomAndPan="magnify" viewBox="0 0 412.5 112.499997" height="150" preserveAspectRatio="xMidYMid meet" version="1.0"><defs><g/><clipPath id="a8dead2890"><path d="M 12 9.707031 L 108 9.707031 L 108 103.042969 L 12 103.042969 Z M 12 9.707031 " clip-rule="nonzero"/></clipPath></defs><g clip-path="url(#a8dead2890)"><path fill="#265077" d="M 67.667969 10.628906 C 65.105469 12.613281 60.152344 16.75 60.152344 16.90625 C 60.152344 17 61.257812 18.167969 62.609375 19.496094 C 65.320312 22.167969 67.132812 25.222656 68.34375 29.179688 C 69.738281 33.726562 69.71875 41.570312 68.300781 45.746094 L 67.601562 47.8125 L 67.191406 44.179688 C 66.171875 35.082031 63.488281 28.96875 57.875 22.945312 C 57.105469 22.121094 56.265625 21.445312 56.007812 21.445312 C 55.542969 21.445312 48.503906 26.605469 46.785156 28.207031 L 45.894531 29.039062 L 47.550781 30.847656 C 50.738281 34.328125 52.953125 38.5 53.867188 42.757812 C 54.4375 45.417969 54.355469 51.695312 53.710938 54.671875 C 52.296875 61.199219 48.546875 67.9375 43.183594 73.570312 C 38.902344 78.074219 34.375 81.390625 28.234375 84.53125 C 24.21875 86.585938 21.617188 87.5625 16.257812 89.03125 C 14.261719 89.578125 12.492188 90.15625 12.328125 90.3125 C 11.507812 91.097656 21.734375 90.191406 27.023438 89.015625 C 37.035156 86.785156 47.617188 81.628906 55.574219 75.101562 C 61.300781 70.402344 66.613281 63.554688 70.007812 56.496094 C 73.007812 50.25 74.085938 46.304688 74.230469 41.050781 L 74.328125 37.445312 L 76.792969 36.148438 C 81.105469 33.882812 80.921875 34.097656 80.628906 31.628906 C 79.832031 24.878906 78.359375 20.574219 75.304688 16.074219 C 74.03125 14.191406 69.699219 9.761719 69.136719 9.761719 C 68.945312 9.761719 68.285156 10.152344 67.667969 10.628906 M 91.703125 26.351562 C 90.066406 27.851562 87.90625 29.667969 86.898438 30.390625 C 85.429688 31.4375 85.101562 31.824219 85.253906 32.335938 C 86.4375 36.253906 86.792969 39.195312 86.785156 44.96875 C 86.777344 51.597656 86.34375 55.128906 84.789062 61.261719 C 83.621094 65.855469 82.683594 68.378906 80.636719 72.425781 C 77.34375 78.929688 72.398438 85.28125 67.414062 89.394531 C 62.742188 93.253906 53.28125 98.335938 47.679688 100 C 45.308594 100.703125 39.59375 102 36.003906 102.652344 C 33.894531 103.035156 33.847656 103.0625 34.898438 103.296875 C 35.5 103.433594 36.492188 103.460938 37.097656 103.359375 C 37.703125 103.257812 53.710938 103.132812 72.671875 103.082031 C 91.628906 103.03125 107.320312 102.878906 107.539062 102.746094 C 107.851562 102.554688 107.882812 96.699219 107.707031 74.367188 C 107.492188 47.839844 107.335938 42 106.828125 41.488281 C 106.710938 41.371094 105.34375 41.574219 103.789062 41.9375 C 100.5625 42.695312 99.308594 42.773438 99.304688 42.207031 C 99.285156 39.929688 98.519531 33.679688 98.003906 31.582031 C 97.273438 28.625 95.773438 24.71875 95.109375 24.054688 C 94.738281 23.6875 94.222656 24.035156 91.703125 26.351562 M 35.855469 37.328125 C 33.355469 38.769531 31.175781 40.160156 31.011719 40.417969 C 30.792969 40.761719 31.058594 41.425781 31.988281 42.859375 C 35.777344 48.726562 37.132812 56.335938 35.515625 62.683594 C 33.367188 71.121094 26.316406 79.183594 16.867188 84.011719 C 14.199219 85.371094 13.730469 85.710938 14.394531 85.792969 C 15.542969 85.9375 23.585938 83 28.101562 80.789062 C 38.074219 75.902344 45.425781 67.375 47.535156 58.242188 C 49.089844 51.507812 47.515625 43.476562 43.40625 37.222656 C 42.195312 35.371094 41.578125 34.707031 41.078125 34.707031 C 40.707031 34.707031 38.355469 35.886719 35.855469 37.328125 " fill-opacity="1" fill-rule="evenodd"/></g><g fill="#ff6b4a" fill-opacity="1"><g transform="translate(120.132741, 89.273398)"><g><path d="M 4.0625 -6.90625 L 4.0625 -9.53125 L 8.640625 -9.53125 C 9.265625 -9.53125 9.816406 -9.65625 10.296875 -9.90625 C 10.773438 -10.15625 11.15625 -10.507812 11.4375 -10.96875 C 11.71875 -11.4375 11.859375 -11.984375 11.859375 -12.609375 C 11.859375 -13.242188 11.71875 -13.789062 11.4375 -14.25 C 11.15625 -14.707031 10.773438 -15.0625 10.296875 -15.3125 C 9.816406 -15.570312 9.265625 -15.703125 8.640625 -15.703125 L 4.0625 -15.703125 L 4.0625 -18.328125 L 8.796875 -18.328125 C 9.941406 -18.328125 10.972656 -18.085938 11.890625 -17.609375 C 12.804688 -17.140625 13.53125 -16.476562 14.0625 -15.625 C 14.59375 -14.769531 14.859375 -13.765625 14.859375 -12.609375 C 14.859375 -11.460938 14.59375 -10.460938 14.0625 -9.609375 C 13.53125 -8.753906 12.804688 -8.085938 11.890625 -7.609375 C 10.972656 -7.140625 9.941406 -6.90625 8.796875 -6.90625 Z M 1.984375 0 L 1.984375 -18.328125 L 5 -18.328125 L 5 0 Z M 1.984375 0 "/></g></g></g><g fill="#ff6b4a" fill-opacity="1"><g transform="translate(143.584353, 89.273398)"><g><path d="M 4.0625 -7.765625 L 4.0625 -10.265625 L 8.6875 -10.265625 C 9.613281 -10.265625 10.332031 -10.503906 10.84375 -10.984375 C 11.363281 -11.460938 11.625 -12.128906 11.625 -12.984375 C 11.625 -13.753906 11.367188 -14.398438 10.859375 -14.921875 C 10.359375 -15.441406 9.644531 -15.703125 8.71875 -15.703125 L 4.0625 -15.703125 L 4.0625 -18.328125 L 8.84375 -18.328125 C 10 -18.328125 11.007812 -18.09375 11.875 -17.625 C 12.75 -17.164062 13.425781 -16.535156 13.90625 -15.734375 C 14.382812 -14.941406 14.625 -14.039062 14.625 -13.03125 C 14.625 -11.96875 14.382812 -11.039062 13.90625 -10.25 C 13.425781 -9.46875 12.75 -8.859375 11.875 -8.421875 C 11.007812 -7.984375 10 -7.765625 8.84375 -7.765625 Z M 1.984375 0 L 1.984375 -18.328125 L 5 -18.328125 L 5 0 Z M 12.046875 0 L 5.625 -7.953125 L 8.421875 -8.984375 L 15.828125 0 Z M 12.046875 0 "/></g></g></g><g fill="#ff6b4a" fill-opacity="1"><g transform="translate(167.297525, 89.273398)"><g><path d="M 10.421875 0.265625 C 9.109375 0.265625 7.882812 0.0195312 6.75 -0.46875 C 5.613281 -0.957031 4.617188 -1.632812 3.765625 -2.5 C 2.910156 -3.363281 2.242188 -4.363281 1.765625 -5.5 C 1.285156 -6.644531 1.046875 -7.875 1.046875 -9.1875 C 1.046875 -10.5 1.285156 -11.71875 1.765625 -12.84375 C 2.242188 -13.976562 2.90625 -14.976562 3.75 -15.84375 C 4.601562 -16.707031 5.59375 -17.378906 6.71875 -17.859375 C 7.84375 -18.335938 9.054688 -18.578125 10.359375 -18.578125 C 11.671875 -18.578125 12.890625 -18.335938 14.015625 -17.859375 C 15.140625 -17.378906 16.128906 -16.707031 16.984375 -15.84375 C 17.835938 -14.976562 18.503906 -13.972656 18.984375 -12.828125 C 19.460938 -11.691406 19.703125 -10.46875 19.703125 -9.15625 C 19.703125 -7.851562 19.460938 -6.628906 18.984375 -5.484375 C 18.503906 -4.335938 17.84375 -3.335938 17 -2.484375 C 16.15625 -1.628906 15.171875 -0.957031 14.046875 -0.46875 C 12.921875 0.0195312 11.710938 0.265625 10.421875 0.265625 Z M 10.359375 -2.625 C 11.597656 -2.625 12.679688 -2.898438 13.609375 -3.453125 C 14.546875 -4.015625 15.28125 -4.785156 15.8125 -5.765625 C 16.351562 -6.753906 16.625 -7.894531 16.625 -9.1875 C 16.625 -10.144531 16.46875 -11.019531 16.15625 -11.8125 C 15.851562 -12.601562 15.421875 -13.289062 14.859375 -13.875 C 14.304688 -14.46875 13.648438 -14.921875 12.890625 -15.234375 C 12.128906 -15.546875 11.285156 -15.703125 10.359375 -15.703125 C 9.140625 -15.703125 8.0625 -15.425781 7.125 -14.875 C 6.195312 -14.320312 5.46875 -13.554688 4.9375 -12.578125 C 4.40625 -11.609375 4.140625 -10.476562 4.140625 -9.1875 C 4.140625 -8.226562 4.289062 -7.34375 4.59375 -6.53125 C 4.894531 -5.71875 5.320312 -5.019531 5.875 -4.4375 C 6.425781 -3.863281 7.082031 -3.414062 7.84375 -3.09375 C 8.613281 -2.78125 9.453125 -2.625 10.359375 -2.625 Z M 10.359375 -2.625 "/></g></g></g><g fill="#ff6b4a" fill-opacity="1"><g transform="translate(195.930652, 89.273398)"><g><path d="M 4.0625 -6.90625 L 4.0625 -9.53125 L 8.640625 -9.53125 C 9.265625 -9.53125 9.816406 -9.65625 10.296875 -9.90625 C 10.773438 -10.15625 11.15625 -10.507812 11.4375 -10.96875 C 11.71875 -11.4375 11.859375 -11.984375 11.859375 -12.609375 C 11.859375 -13.242188 11.71875 -13.789062 11.4375 -14.25 C 11.15625 -14.707031 10.773438 -15.0625 10.296875 -15.3125 C 9.816406 -15.570312 9.265625 -15.703125 8.640625 -15.703125 L 4.0625 -15.703125 L 4.0625 -18.328125 L 8.796875 -18.328125 C 9.941406 -18.328125 10.972656 -18.085938 11.890625 -17.609375 C 12.804688 -17.140625 13.53125 -16.476562 14.0625 -15.625 C 14.59375 -14.769531 14.859375 -13.765625 14.859375 -12.609375 C 14.859375 -11.460938 14.59375 -10.460938 14.0625 -9.609375 C 13.53125 -8.753906 12.804688 -8.085938 11.890625 -7.609375 C 10.972656 -7.140625 9.941406 -6.90625 8.796875 -6.90625 Z M 1.984375 0 L 1.984375 -18.328125 L 5 -18.328125 L 5 0 Z M 1.984375 0 "/></g></g></g><g fill="#ff6b4a" fill-opacity="1"><g transform="translate(219.382264, 89.273398)"><g><path d="M 1.984375 0 L 1.984375 -18.328125 L 5 -18.328125 L 5 0 Z M 4.0625 0 L 4.0625 -2.75 L 14.3125 -2.75 L 14.3125 0 Z M 4.0625 -8.03125 L 4.0625 -10.671875 L 13.421875 -10.671875 L 13.421875 -8.03125 Z M 4.0625 -15.578125 L 4.0625 -18.328125 L 14.1875 -18.328125 L 14.1875 -15.578125 Z M 4.0625 -15.578125 "/></g></g></g><g fill="#ff6b4a" fill-opacity="1"><g transform="translate(242.676954, 89.273398)"><g><path d="M 4.0625 -7.765625 L 4.0625 -10.265625 L 8.6875 -10.265625 C 9.613281 -10.265625 10.332031 -10.503906 10.84375 -10.984375 C 11.363281 -11.460938 11.625 -12.128906 11.625 -12.984375 C 11.625 -13.753906 11.367188 -14.398438 10.859375 -14.921875 C 10.359375 -15.441406 9.644531 -15.703125 8.71875 -15.703125 L 4.0625 -15.703125 L 4.0625 -18.328125 L 8.84375 -18.328125 C 10 -18.328125 11.007812 -18.09375 11.875 -17.625 C 12.75 -17.164062 13.425781 -16.535156 13.90625 -15.734375 C 14.382812 -14.941406 14.625 -14.039062 14.625 -13.03125 C 14.625 -11.96875 14.382812 -11.039062 13.90625 -10.25 C 13.425781 -9.46875 12.75 -8.859375 11.875 -8.421875 C 11.007812 -7.984375 10 -7.765625 8.84375 -7.765625 Z M 1.984375 0 L 1.984375 -18.328125 L 5 -18.328125 L 5 0 Z M 12.046875 0 L 5.625 -7.953125 L 8.421875 -8.984375 L 15.828125 0 Z M 12.046875 0 "/></g></g></g><g fill="#ff6b4a" fill-opacity="1"><g transform="translate(265.709481, 89.273398)"><g><path d="M 6.59375 0 L 6.59375 -17.796875 L 9.609375 -17.796875 L 9.609375 0 Z M 0.625 -15.578125 L 0.625 -18.328125 L 15.578125 -18.328125 L 15.578125 -15.578125 Z M 0.625 -15.578125 "/></g></g></g><g fill="#ff6b4a" fill-opacity="1"><g transform="translate(289.763066, 89.273398)"><g><path d="M 1.984375 0 L 1.984375 -18.328125 L 5 -18.328125 L 5 0 Z M 1.984375 0 "/></g></g></g><g fill="#ff6b4a" fill-opacity="1"><g transform="translate(304.605227, 89.273398)"><g><path d="M 1.984375 0 L 1.984375 -18.328125 L 5 -18.328125 L 5 0 Z M 4.0625 0 L 4.0625 -2.75 L 14.3125 -2.75 L 14.3125 0 Z M 4.0625 -8.03125 L 4.0625 -10.671875 L 13.421875 -10.671875 L 13.421875 -8.03125 Z M 4.0625 -15.578125 L 4.0625 -18.328125 L 14.1875 -18.328125 L 14.1875 -15.578125 Z M 4.0625 -15.578125 "/></g></g></g><g fill="#ff6b4a" fill-opacity="1"><g transform="translate(327.428695, 89.273398)"><g><path d="M 7.09375 0.265625 C 5.644531 0.265625 4.414062 0.00390625 3.40625 -0.515625 C 2.394531 -1.046875 1.488281 -1.816406 0.6875 -2.828125 L 2.71875 -4.875 C 3.226562 -4.132812 3.832031 -3.554688 4.53125 -3.140625 C 5.226562 -2.734375 6.117188 -2.53125 7.203125 -2.53125 C 8.210938 -2.53125 9.015625 -2.738281 9.609375 -3.15625 C 10.210938 -3.582031 10.515625 -4.160156 10.515625 -4.890625 C 10.515625 -5.503906 10.359375 -6.003906 10.046875 -6.390625 C 9.734375 -6.773438 9.316406 -7.09375 8.796875 -7.34375 C 8.285156 -7.59375 7.71875 -7.816406 7.09375 -8.015625 C 6.476562 -8.222656 5.859375 -8.453125 5.234375 -8.703125 C 4.617188 -8.953125 4.054688 -9.269531 3.546875 -9.65625 C 3.035156 -10.039062 2.617188 -10.535156 2.296875 -11.140625 C 1.984375 -11.753906 1.828125 -12.535156 1.828125 -13.484375 C 1.828125 -14.554688 2.09375 -15.472656 2.625 -16.234375 C 3.15625 -16.992188 3.875 -17.570312 4.78125 -17.96875 C 5.695312 -18.375 6.710938 -18.578125 7.828125 -18.578125 C 9.023438 -18.578125 10.097656 -18.34375 11.046875 -17.875 C 12.003906 -17.40625 12.78125 -16.800781 13.375 -16.0625 L 11.328125 -14.03125 C 10.804688 -14.625 10.257812 -15.0625 9.6875 -15.34375 C 9.125 -15.632812 8.476562 -15.78125 7.75 -15.78125 C 6.84375 -15.78125 6.128906 -15.597656 5.609375 -15.234375 C 5.097656 -14.867188 4.84375 -14.351562 4.84375 -13.6875 C 4.84375 -13.125 5 -12.671875 5.3125 -12.328125 C 5.625 -11.992188 6.035156 -11.707031 6.546875 -11.46875 C 7.066406 -11.238281 7.632812 -11.019531 8.25 -10.8125 C 8.875 -10.601562 9.492188 -10.363281 10.109375 -10.09375 C 10.734375 -9.832031 11.300781 -9.5 11.8125 -9.09375 C 12.332031 -8.6875 12.75 -8.160156 13.0625 -7.515625 C 13.375 -6.867188 13.53125 -6.054688 13.53125 -5.078125 C 13.53125 -3.441406 12.945312 -2.140625 11.78125 -1.171875 C 10.625 -0.210938 9.0625 0.265625 7.09375 0.265625 Z M 7.09375 0.265625 "/></g></g></g><g fill="#265077" fill-opacity="1"><g transform="translate(120.132741, 53.701324)"><g><path d="M 18.203125 0.5 C 15.867188 0.5 13.679688 0.078125 11.640625 -0.765625 C 9.597656 -1.617188 7.820312 -2.789062 6.3125 -4.28125 C 4.800781 -5.78125 3.613281 -7.535156 2.75 -9.546875 C 1.882812 -11.566406 1.453125 -13.738281 1.453125 -16.0625 C 1.453125 -18.394531 1.890625 -20.5625 2.765625 -22.5625 C 3.640625 -24.5625 4.859375 -26.304688 6.421875 -27.796875 C 7.984375 -29.296875 9.804688 -30.460938 11.890625 -31.296875 C 13.984375 -32.128906 16.222656 -32.546875 18.609375 -32.546875 C 21.359375 -32.546875 23.859375 -32.046875 26.109375 -31.046875 C 28.367188 -30.046875 30.242188 -28.671875 31.734375 -26.921875 L 26.875 -22.0625 C 25.84375 -23.394531 24.628906 -24.390625 23.234375 -25.046875 C 21.847656 -25.710938 20.273438 -26.046875 18.515625 -26.046875 C 16.640625 -26.046875 14.957031 -25.628906 13.46875 -24.796875 C 11.988281 -23.972656 10.832031 -22.8125 10 -21.3125 C 9.175781 -19.8125 8.765625 -18.0625 8.765625 -16.0625 C 8.765625 -14.070312 9.171875 -12.316406 9.984375 -10.796875 C 10.804688 -9.285156 11.925781 -8.101562 13.34375 -7.25 C 14.769531 -6.40625 16.40625 -5.984375 18.25 -5.984375 C 20.125 -5.984375 21.71875 -6.335938 23.03125 -7.046875 C 24.351562 -7.765625 25.367188 -8.796875 26.078125 -10.140625 C 26.785156 -11.492188 27.140625 -13.132812 27.140625 -15.0625 L 31.859375 -11.890625 L 17.5625 -12.125 L 17.5625 -18.15625 L 34.40625 -18.15625 L 34.40625 -17.109375 C 34.40625 -13.265625 33.71875 -10.035156 32.34375 -7.421875 C 30.96875 -4.804688 29.0625 -2.832031 26.625 -1.5 C 24.1875 -0.164062 21.378906 0.5 18.203125 0.5 Z M 18.203125 0.5 "/></g></g></g><g fill="#265077" fill-opacity="1"><g transform="translate(155.768581, 53.701324)"><g><path d="M 2.453125 0 L 2.453125 -22.0625 L 9.390625 -22.0625 L 9.390625 0 Z M 9.390625 -12.125 L 6.484375 -14.390625 C 7.066406 -16.960938 8.035156 -18.957031 9.390625 -20.375 C 10.753906 -21.800781 12.644531 -22.515625 15.0625 -22.515625 C 16.125 -22.515625 17.054688 -22.351562 17.859375 -22.03125 C 18.660156 -21.71875 19.363281 -21.226562 19.96875 -20.5625 L 15.84375 -15.34375 C 15.539062 -15.675781 15.160156 -15.929688 14.703125 -16.109375 C 14.253906 -16.296875 13.738281 -16.390625 13.15625 -16.390625 C 12.007812 -16.390625 11.09375 -16.03125 10.40625 -15.3125 C 9.726562 -14.601562 9.390625 -13.539062 9.390625 -12.125 Z M 9.390625 -12.125 "/></g></g></g><g fill="#265077" fill-opacity="1"><g transform="translate(174.517044, 53.701324)"><g><path d="M 13.078125 0.5 C 10.804688 0.5 8.753906 -0.00390625 6.921875 -1.015625 C 5.085938 -2.035156 3.640625 -3.421875 2.578125 -5.171875 C 1.523438 -6.929688 1 -8.898438 1 -11.078125 C 1 -13.253906 1.523438 -15.203125 2.578125 -16.921875 C 3.640625 -18.648438 5.078125 -20.019531 6.890625 -21.03125 C 8.710938 -22.050781 10.773438 -22.5625 13.078125 -22.5625 C 15.367188 -22.5625 17.421875 -22.0625 19.234375 -21.0625 C 21.054688 -20.0625 22.492188 -18.691406 23.546875 -16.953125 C 24.609375 -15.210938 25.140625 -13.253906 25.140625 -11.078125 C 25.140625 -8.898438 24.609375 -6.929688 23.546875 -5.171875 C 22.492188 -3.421875 21.054688 -2.035156 19.234375 -1.015625 C 17.421875 -0.00390625 15.367188 0.5 13.078125 0.5 Z M 13.078125 -5.8125 C 14.078125 -5.8125 14.953125 -6.03125 15.703125 -6.46875 C 16.460938 -6.90625 17.046875 -7.523438 17.453125 -8.328125 C 17.859375 -9.128906 18.0625 -10.046875 18.0625 -11.078125 C 18.0625 -12.109375 17.847656 -13.007812 17.421875 -13.78125 C 17.003906 -14.550781 16.425781 -15.15625 15.6875 -15.59375 C 14.945312 -16.03125 14.078125 -16.25 13.078125 -16.25 C 12.109375 -16.25 11.242188 -16.03125 10.484375 -15.59375 C 9.722656 -15.15625 9.128906 -14.539062 8.703125 -13.75 C 8.285156 -12.96875 8.078125 -12.0625 8.078125 -11.03125 C 8.078125 -10.03125 8.285156 -9.128906 8.703125 -8.328125 C 9.128906 -7.523438 9.722656 -6.90625 10.484375 -6.46875 C 11.242188 -6.03125 12.109375 -5.8125 13.078125 -5.8125 Z M 13.078125 -5.8125 "/></g></g></g><g fill="#265077" fill-opacity="1"><g transform="translate(200.211139, 53.701324)"><g><path d="M 7.859375 0 L 0.234375 -22.0625 L 7.03125 -22.0625 L 11.75 -6.03125 L 9.765625 -5.984375 L 14.984375 -22.0625 L 20.609375 -22.0625 L 25.875 -5.984375 L 23.828125 -6.03125 L 28.59375 -22.0625 L 35.40625 -22.0625 L 27.78125 0 L 22.109375 0 L 16.96875 -15.25 L 18.703125 -15.25 L 13.484375 0 Z M 7.859375 0 "/></g></g></g><g fill="#265077" fill-opacity="1"><g transform="translate(235.846979, 53.701324)"><g><path d="M 5.578125 0 L 5.578125 -31.1875 L 12.53125 -31.1875 L 12.53125 0 Z M 0.59375 -16.15625 L 0.59375 -22.0625 L 17.515625 -22.0625 L 17.515625 -16.15625 Z M 0.59375 -16.15625 "/></g></g></g><g fill="#265077" fill-opacity="1"><g transform="translate(253.959973, 53.701324)"><g><path d="M 17.015625 0 L 17.015625 -12.578125 C 17.015625 -13.722656 16.660156 -14.648438 15.953125 -15.359375 C 15.242188 -16.078125 14.34375 -16.4375 13.25 -16.4375 C 12.5 -16.4375 11.832031 -16.273438 11.25 -15.953125 C 10.675781 -15.640625 10.222656 -15.1875 9.890625 -14.59375 C 9.554688 -14 9.390625 -13.328125 9.390625 -12.578125 L 6.71875 -13.890625 C 6.71875 -15.617188 7.078125 -17.128906 7.796875 -18.421875 C 8.523438 -19.722656 9.539062 -20.726562 10.84375 -21.4375 C 12.144531 -22.15625 13.644531 -22.515625 15.34375 -22.515625 C 17.0625 -22.515625 18.570312 -22.15625 19.875 -21.4375 C 21.175781 -20.726562 22.179688 -19.742188 22.890625 -18.484375 C 23.609375 -17.234375 23.96875 -15.773438 23.96875 -14.109375 L 23.96875 0 Z M 2.453125 0 L 2.453125 -32.953125 L 9.390625 -32.953125 L 9.390625 0 Z M 2.453125 0 "/></g></g></g><g fill="#265077" fill-opacity="1"><g transform="translate(279.926462, 53.701324)"><g><path d="M 11.078125 0 L 0.765625 -32.046875 L 7.859375 -32.046875 L 15.390625 -7.40625 L 12.625 -7.40625 L 19.96875 -32.046875 L 25.5625 -32.046875 L 32.90625 -7.40625 L 30.1875 -7.40625 L 37.671875 -32.046875 L 44.703125 -32.046875 L 34.40625 0 L 28.828125 0 L 21.421875 -24.640625 L 24.0625 -24.640625 L 16.65625 0 Z M 11.078125 0 "/></g></g></g><g fill="#265077" fill-opacity="1"><g transform="translate(322.55312, 53.701324)"><g><path d="M 11.671875 0.453125 C 9.640625 0.453125 7.828125 -0.046875 6.234375 -1.046875 C 4.648438 -2.046875 3.394531 -3.40625 2.46875 -5.125 C 1.550781 -6.851562 1.09375 -8.820312 1.09375 -11.03125 C 1.09375 -13.238281 1.550781 -15.203125 2.46875 -16.921875 C 3.394531 -18.648438 4.648438 -20.015625 6.234375 -21.015625 C 7.828125 -22.015625 9.640625 -22.515625 11.671875 -22.515625 C 13.148438 -22.515625 14.484375 -22.222656 15.671875 -21.640625 C 16.867188 -21.066406 17.847656 -20.273438 18.609375 -19.265625 C 19.367188 -18.253906 19.789062 -17.097656 19.875 -15.796875 L 19.875 -6.265625 C 19.789062 -4.960938 19.375 -3.800781 18.625 -2.78125 C 17.882812 -1.769531 16.910156 -0.976562 15.703125 -0.40625 C 14.492188 0.164062 13.148438 0.453125 11.671875 0.453125 Z M 13.078125 -5.8125 C 14.554688 -5.8125 15.75 -6.300781 16.65625 -7.28125 C 17.5625 -8.269531 18.015625 -9.519531 18.015625 -11.03125 C 18.015625 -12.0625 17.8125 -12.96875 17.40625 -13.75 C 17 -14.539062 16.425781 -15.15625 15.6875 -15.59375 C 14.945312 -16.03125 14.09375 -16.25 13.125 -16.25 C 12.15625 -16.25 11.296875 -16.03125 10.546875 -15.59375 C 9.804688 -15.15625 9.21875 -14.539062 8.78125 -13.75 C 8.34375 -12.96875 8.125 -12.0625 8.125 -11.03125 C 8.125 -10.03125 8.332031 -9.132812 8.75 -8.34375 C 9.175781 -7.5625 9.769531 -6.941406 10.53125 -6.484375 C 11.289062 -6.035156 12.140625 -5.8125 13.078125 -5.8125 Z M 17.75 0 L 17.75 -5.953125 L 18.796875 -11.296875 L 17.75 -16.65625 L 17.75 -22.0625 L 24.5625 -22.0625 L 24.5625 0 Z M 17.75 0 "/></g></g></g><g fill="#265077" fill-opacity="1"><g transform="translate(349.563716, 53.701324)"><g><path d="M 9.390625 0 L 0.046875 -22.0625 L 7.53125 -22.0625 L 13.890625 -3.671875 L 10.625 -3.671875 L 16.96875 -22.0625 L 24.328125 -22.0625 L 14.984375 0 Z M 9.390625 0 "/></g></g></g><g fill="#265077" fill-opacity="1"><g transform="translate(373.351196, 53.701324)"><g><path d="M 13.34375 0.5 C 10.957031 0.5 8.832031 0.0078125 6.96875 -0.96875 C 5.101562 -1.957031 3.640625 -3.328125 2.578125 -5.078125 C 1.523438 -6.835938 1 -8.820312 1 -11.03125 C 1 -13.238281 1.519531 -15.210938 2.5625 -16.953125 C 3.601562 -18.691406 5.015625 -20.0625 6.796875 -21.0625 C 8.585938 -22.0625 10.601562 -22.5625 12.84375 -22.5625 C 15.019531 -22.5625 16.941406 -22.09375 18.609375 -21.15625 C 20.273438 -20.21875 21.582031 -18.914062 22.53125 -17.25 C 23.488281 -15.582031 23.96875 -13.675781 23.96875 -11.53125 C 23.96875 -11.132812 23.941406 -10.71875 23.890625 -10.28125 C 23.847656 -9.84375 23.769531 -9.335938 23.65625 -8.765625 L 4.625 -8.71875 L 4.625 -13.484375 L 20.703125 -13.53125 L 17.703125 -11.53125 C 17.671875 -12.800781 17.472656 -13.851562 17.109375 -14.6875 C 16.742188 -15.519531 16.207031 -16.15625 15.5 -16.59375 C 14.789062 -17.03125 13.921875 -17.25 12.890625 -17.25 C 11.796875 -17.25 10.847656 -17 10.046875 -16.5 C 9.242188 -16 8.625 -15.296875 8.1875 -14.390625 C 7.75 -13.484375 7.53125 -12.378906 7.53125 -11.078125 C 7.53125 -9.773438 7.765625 -8.660156 8.234375 -7.734375 C 8.703125 -6.816406 9.367188 -6.109375 10.234375 -5.609375 C 11.097656 -5.109375 12.117188 -4.859375 13.296875 -4.859375 C 14.390625 -4.859375 15.375 -5.046875 16.25 -5.421875 C 17.125 -5.796875 17.894531 -6.363281 18.5625 -7.125 L 22.375 -3.3125 C 21.289062 -2.039062 19.972656 -1.085938 18.421875 -0.453125 C 16.878906 0.179688 15.1875 0.5 13.34375 0.5 Z M 13.34375 0.5 "/></g></g></g></svg>