<svg xmlns="http://www.w3.org/2000/svg" xmlns:xlink="http://www.w3.org/1999/xlink" width="512" zoomAndPan="magnify" viewBox="0 0 384 383.999986" height="512" preserveAspectRatio="xMidYMid meet" version="1.0"><defs><g/><clipPath id="f142d9bd54"><path d="M 115 42.300781 L 269 42.300781 L 269 192.300781 L 115 192.300781 Z M 115 42.300781 " clip-rule="nonzero"/></clipPath></defs><rect x="-38.4" width="460.8" fill="#ffffff" y="-38.399999" height="460.799983" fill-opacity="1"/><rect x="-38.4" width="460.8" fill="#265077" y="-38.399999" height="460.799983" fill-opacity="1"/><g clip-path="url(#f142d9bd54)"><path fill="#ffffff" d="M 204.300781 43.78125 C 200.175781 46.976562 192.207031 53.632812 192.207031 53.886719 C 192.207031 54.035156 193.988281 55.910156 196.164062 58.050781 C 200.527344 62.347656 203.4375 67.265625 205.386719 73.628906 C 207.628906 80.945312 207.597656 93.570312 205.320312 100.285156 L 204.191406 103.613281 L 203.535156 97.769531 C 201.890625 83.128906 197.574219 73.292969 188.542969 63.597656 C 187.304688 62.269531 185.953125 61.183594 185.539062 61.183594 C 184.789062 61.183594 173.464844 69.488281 170.699219 72.066406 L 169.261719 73.40625 L 171.929688 76.3125 C 177.0625 81.914062 180.621094 88.625 182.09375 95.480469 C 183.007812 99.757812 182.878906 109.863281 181.839844 114.648438 C 179.570312 125.152344 173.53125 135.992188 164.90625 145.058594 C 158.011719 152.304688 150.726562 157.644531 140.851562 162.695312 C 134.386719 166 130.203125 167.570312 121.578125 169.9375 C 118.367188 170.816406 115.519531 171.746094 115.253906 172 C 113.933594 173.257812 130.386719 171.804688 138.898438 169.910156 C 155.011719 166.320312 172.039062 158.023438 184.839844 147.523438 C 194.054688 139.964844 202.605469 128.945312 208.0625 117.585938 C 212.894531 107.535156 214.628906 101.1875 214.855469 92.730469 L 215.015625 86.929688 L 218.980469 84.84375 C 225.917969 81.195312 225.625 81.542969 225.15625 77.574219 C 223.871094 66.710938 221.5 59.78125 216.589844 52.542969 C 214.535156 49.515625 207.566406 42.386719 206.660156 42.386719 C 206.355469 42.386719 205.292969 43.011719 204.300781 43.78125 M 242.972656 69.078125 C 240.34375 71.496094 236.863281 74.417969 235.242188 75.578125 C 232.878906 77.261719 232.351562 77.886719 232.597656 78.707031 C 234.5 85.015625 235.074219 89.746094 235.0625 99.039062 C 235.046875 109.703125 234.351562 115.386719 231.847656 125.253906 C 229.972656 132.644531 228.464844 136.703125 225.167969 143.21875 C 219.871094 153.683594 211.910156 163.902344 203.894531 170.523438 C 196.375 176.730469 181.152344 184.910156 172.136719 187.585938 C 168.324219 188.71875 159.128906 190.804688 153.347656 191.851562 C 149.957031 192.464844 149.882812 192.511719 151.570312 192.890625 C 152.542969 193.109375 154.132812 193.152344 155.109375 192.988281 C 156.082031 192.828125 181.839844 192.625 212.347656 192.542969 C 242.855469 192.460938 268.105469 192.21875 268.453125 192.003906 C 268.957031 191.691406 269.011719 182.273438 268.722656 146.339844 C 268.382812 103.65625 268.132812 94.257812 267.3125 93.441406 C 267.121094 93.25 264.921875 93.574219 262.421875 94.160156 C 257.226562 95.382812 255.214844 95.5 255.207031 94.59375 C 255.175781 90.929688 253.945312 80.871094 253.113281 77.5 C 251.9375 72.738281 249.523438 66.457031 248.453125 65.386719 C 247.859375 64.792969 247.03125 65.351562 242.972656 69.078125 M 153.109375 86.742188 C 149.085938 89.058594 145.582031 91.296875 145.316406 91.714844 C 144.96875 92.269531 145.394531 93.339844 146.886719 95.644531 C 152.988281 105.082031 155.167969 117.328125 152.566406 127.539062 C 149.109375 141.117188 137.765625 154.089844 122.554688 161.855469 C 118.265625 164.046875 117.511719 164.59375 118.578125 164.726562 C 120.429688 164.957031 133.371094 160.234375 140.632812 156.675781 C 156.683594 148.808594 168.507812 135.089844 171.90625 120.394531 C 174.410156 109.558594 171.871094 96.636719 165.265625 86.570312 C 163.3125 83.597656 162.320312 82.527344 161.515625 82.527344 C 160.917969 82.527344 157.132812 84.421875 153.109375 86.742188 " fill-opacity="1" fill-rule="evenodd"/></g><g fill="#ffffff" fill-opacity="1"><g transform="translate(86.423438, 307.349976)"><g><path d="M 14.328125 0.359375 C 12.484375 0.359375 10.765625 0.03125 9.171875 -0.625 C 7.585938 -1.289062 6.203125 -2.21875 5.015625 -3.40625 C 3.828125 -4.59375 2.914062 -5.976562 2.28125 -7.5625 C 1.644531 -9.144531 1.328125 -10.847656 1.328125 -12.671875 C 1.328125 -14.492188 1.644531 -16.195312 2.28125 -17.78125 C 2.914062 -19.363281 3.828125 -20.742188 5.015625 -21.921875 C 6.203125 -23.097656 7.582031 -24.019531 9.15625 -24.6875 C 10.726562 -25.363281 12.453125 -25.703125 14.328125 -25.703125 C 16.347656 -25.703125 18.125 -25.367188 19.65625 -24.703125 C 21.1875 -24.046875 22.539062 -23.144531 23.71875 -22 L 20.40625 -18.6875 C 19.71875 -19.457031 18.867188 -20.054688 17.859375 -20.484375 C 16.847656 -20.910156 15.671875 -21.125 14.328125 -21.125 C 13.148438 -21.125 12.070312 -20.925781 11.09375 -20.53125 C 10.125 -20.132812 9.28125 -19.554688 8.5625 -18.796875 C 7.84375 -18.046875 7.289062 -17.148438 6.90625 -16.109375 C 6.53125 -15.066406 6.34375 -13.921875 6.34375 -12.671875 C 6.34375 -11.398438 6.53125 -10.25 6.90625 -9.21875 C 7.289062 -8.1875 7.84375 -7.289062 8.5625 -6.53125 C 9.28125 -5.78125 10.125 -5.195312 11.09375 -4.78125 C 12.070312 -4.375 13.148438 -4.171875 14.328125 -4.171875 C 15.742188 -4.171875 16.960938 -4.382812 17.984375 -4.8125 C 19.003906 -5.25 19.863281 -5.863281 20.5625 -6.65625 L 23.875 -3.34375 C 22.695312 -2.164062 21.328125 -1.253906 19.765625 -0.609375 C 18.203125 0.0351562 16.390625 0.359375 14.328125 0.359375 Z M 14.328125 0.359375 "/></g></g></g><g fill="#ffffff" fill-opacity="1"><g transform="translate(121.271485, 307.349976)"><g><path d="M 0.71875 0 L 10.90625 -25.3125 L 14.90625 -25.3125 L 25.0625 0 L 19.84375 0 L 11.984375 -20.765625 L 13.78125 -20.765625 L 5.828125 0 Z M 6.125 -4.71875 L 6.125 -8.8125 L 19.734375 -8.8125 L 19.734375 -4.71875 Z M 6.125 -4.71875 "/></g></g></g><g fill="#ffffff" fill-opacity="1"><g transform="translate(157.523527, 307.349976)"><g><path d="M 6.1875 -9.390625 L 6.1875 -13.390625 L 12.0625 -13.390625 C 12.832031 -13.390625 13.523438 -13.546875 14.140625 -13.859375 C 14.765625 -14.171875 15.253906 -14.617188 15.609375 -15.203125 C 15.972656 -15.796875 16.15625 -16.515625 16.15625 -17.359375 C 16.15625 -18.171875 15.972656 -18.875 15.609375 -19.46875 C 15.253906 -20.070312 14.765625 -20.53125 14.140625 -20.84375 C 13.523438 -21.15625 12.832031 -21.3125 12.0625 -21.3125 L 6.1875 -21.3125 L 6.1875 -25.3125 L 12.5625 -25.3125 C 14.164062 -25.3125 15.609375 -24.984375 16.890625 -24.328125 C 18.179688 -23.679688 19.195312 -22.765625 19.9375 -21.578125 C 20.6875 -20.390625 21.0625 -18.984375 21.0625 -17.359375 C 21.0625 -15.722656 20.6875 -14.3125 19.9375 -13.125 C 19.195312 -11.9375 18.179688 -11.015625 16.890625 -10.359375 C 15.609375 -9.710938 14.164062 -9.390625 12.5625 -9.390625 Z M 2.59375 0 L 2.59375 -25.3125 L 7.484375 -25.3125 L 7.484375 0 Z M 2.59375 0 "/></g></g></g><g fill="#ffffff" fill-opacity="1"><g transform="translate(190.247562, 307.349976)"><g><path d="M 2.59375 0 L 2.59375 -25.3125 L 7.484375 -25.3125 L 7.484375 0 Z M 2.59375 0 "/></g></g></g><g fill="#ffffff" fill-opacity="1"><g transform="translate(211.12758, 307.349976)"><g><path d="M 8.859375 0 L 8.859375 -24.765625 L 13.78125 -24.765625 L 13.78125 0 Z M 0.796875 -20.953125 L 0.796875 -25.3125 L 21.859375 -25.3125 L 21.859375 -20.953125 Z M 0.796875 -20.953125 "/></g></g></g><g fill="#ffffff" fill-opacity="1"><g transform="translate(241.295623, 307.349976)"><g><path d="M 0.71875 0 L 10.90625 -25.3125 L 14.90625 -25.3125 L 25.0625 0 L 19.84375 0 L 11.984375 -20.765625 L 13.78125 -20.765625 L 5.828125 0 Z M 6.125 -4.71875 L 6.125 -8.8125 L 19.734375 -8.8125 L 19.734375 -4.71875 Z M 6.125 -4.71875 "/></g></g></g><g fill="#ffffff" fill-opacity="1"><g transform="translate(277.547665, 307.349976)"><g><path d="M 2.59375 0 L 2.59375 -25.3125 L 7.484375 -25.3125 L 7.484375 0 Z M 6.1875 0 L 6.1875 -4.359375 L 19.078125 -4.359375 L 19.078125 0 Z M 6.1875 0 "/></g></g></g><g fill="#ffffff" fill-opacity="1"><g transform="translate(44.964847, 256.49998)"><g><path d="M 19.25 0.53125 C 16.78125 0.53125 14.46875 0.0820312 12.3125 -0.8125 C 10.15625 -1.707031 8.273438 -2.945312 6.671875 -4.53125 C 5.066406 -6.113281 3.804688 -7.96875 2.890625 -10.09375 C 1.984375 -12.226562 1.53125 -14.523438 1.53125 -16.984375 C 1.53125 -19.453125 1.992188 -21.742188 2.921875 -23.859375 C 3.847656 -25.972656 5.132812 -27.820312 6.78125 -29.40625 C 8.4375 -30.988281 10.367188 -32.21875 12.578125 -33.09375 C 14.785156 -33.976562 17.15625 -34.421875 19.6875 -34.421875 C 22.59375 -34.421875 25.238281 -33.890625 27.625 -32.828125 C 30.007812 -31.773438 31.984375 -30.320312 33.546875 -28.46875 L 28.421875 -23.328125 C 27.328125 -24.734375 26.046875 -25.785156 24.578125 -26.484375 C 23.109375 -27.191406 21.441406 -27.546875 19.578125 -27.546875 C 17.597656 -27.546875 15.820312 -27.101562 14.25 -26.21875 C 12.6875 -25.34375 11.460938 -24.113281 10.578125 -22.53125 C 9.703125 -20.945312 9.265625 -19.097656 9.265625 -16.984375 C 9.265625 -14.878906 9.695312 -13.023438 10.5625 -11.421875 C 11.425781 -9.828125 12.609375 -8.582031 14.109375 -7.6875 C 15.617188 -6.789062 17.347656 -6.34375 19.296875 -6.34375 C 21.273438 -6.34375 22.960938 -6.71875 24.359375 -7.46875 C 25.753906 -8.21875 26.828125 -9.300781 27.578125 -10.71875 C 28.328125 -12.144531 28.703125 -13.882812 28.703125 -15.9375 L 33.703125 -12.578125 L 18.578125 -12.8125 L 18.578125 -19.203125 L 36.390625 -19.203125 L 36.390625 -18.09375 C 36.390625 -14.03125 35.660156 -10.613281 34.203125 -7.84375 C 32.742188 -5.082031 30.722656 -2.992188 28.140625 -1.578125 C 25.566406 -0.171875 22.601562 0.53125 19.25 0.53125 Z M 19.25 0.53125 "/></g></g></g><g fill="#ffffff" fill-opacity="1"><g transform="translate(82.64478, 256.49998)"><g><path d="M 2.59375 0 L 2.59375 -23.328125 L 9.9375 -23.328125 L 9.9375 0 Z M 9.9375 -12.8125 L 6.859375 -15.21875 C 7.472656 -17.9375 8.5 -20.046875 9.9375 -21.546875 C 11.375 -23.054688 13.375 -23.8125 15.9375 -23.8125 C 17.050781 -23.8125 18.03125 -23.640625 18.875 -23.296875 C 19.726562 -22.960938 20.476562 -22.445312 21.125 -21.75 L 16.75 -16.21875 C 16.425781 -16.570312 16.023438 -16.84375 15.546875 -17.03125 C 15.066406 -17.226562 14.523438 -17.328125 13.921875 -17.328125 C 12.703125 -17.328125 11.734375 -16.953125 11.015625 -16.203125 C 10.296875 -15.453125 9.9375 -14.320312 9.9375 -12.8125 Z M 9.9375 -12.8125 "/></g></g></g><g fill="#ffffff" fill-opacity="1"><g transform="translate(102.468749, 256.49998)"><g><path d="M 13.828125 0.53125 C 11.421875 0.53125 9.25 -0.00390625 7.3125 -1.078125 C 5.382812 -2.148438 3.859375 -3.613281 2.734375 -5.46875 C 1.617188 -7.320312 1.0625 -9.40625 1.0625 -11.71875 C 1.0625 -14.019531 1.617188 -16.082031 2.734375 -17.90625 C 3.859375 -19.726562 5.378906 -21.175781 7.296875 -22.25 C 9.210938 -23.320312 11.390625 -23.859375 13.828125 -23.859375 C 16.253906 -23.859375 18.425781 -23.328125 20.34375 -22.265625 C 22.269531 -21.210938 23.789062 -19.765625 24.90625 -17.921875 C 26.03125 -16.085938 26.59375 -14.019531 26.59375 -11.71875 C 26.59375 -9.40625 26.03125 -7.320312 24.90625 -5.46875 C 23.789062 -3.613281 22.269531 -2.148438 20.34375 -1.078125 C 18.425781 -0.00390625 16.253906 0.53125 13.828125 0.53125 Z M 13.828125 -6.140625 C 14.878906 -6.140625 15.804688 -6.367188 16.609375 -6.828125 C 17.410156 -7.296875 18.023438 -7.953125 18.453125 -8.796875 C 18.890625 -9.648438 19.109375 -10.625 19.109375 -11.71875 C 19.109375 -12.800781 18.882812 -13.75 18.4375 -14.5625 C 17.988281 -15.382812 17.367188 -16.023438 16.578125 -16.484375 C 15.796875 -16.953125 14.878906 -17.1875 13.828125 -17.1875 C 12.796875 -17.1875 11.878906 -16.953125 11.078125 -16.484375 C 10.285156 -16.023438 9.664062 -15.378906 9.21875 -14.546875 C 8.769531 -13.710938 8.546875 -12.75 8.546875 -11.65625 C 8.546875 -10.601562 8.769531 -9.648438 9.21875 -8.796875 C 9.664062 -7.953125 10.285156 -7.296875 11.078125 -6.828125 C 11.878906 -6.367188 12.796875 -6.140625 13.828125 -6.140625 Z M 13.828125 -6.140625 "/></g></g></g><g fill="#ffffff" fill-opacity="1"><g transform="translate(129.6367, 256.49998)"><g><path d="M 8.296875 0 L 0.234375 -23.328125 L 7.4375 -23.328125 L 12.4375 -6.390625 L 10.3125 -6.34375 L 15.84375 -23.328125 L 21.796875 -23.328125 L 27.359375 -6.34375 L 25.203125 -6.390625 L 30.234375 -23.328125 L 37.4375 -23.328125 L 29.375 0 L 23.375 0 L 17.953125 -16.125 L 19.78125 -16.125 L 14.25 0 Z M 8.296875 0 "/></g></g></g><g fill="#ffffff" fill-opacity="1"><g transform="translate(167.316633, 256.49998)"><g><path d="M 5.90625 0 L 5.90625 -32.96875 L 13.25 -32.96875 L 13.25 0 Z M 0.625 -17.09375 L 0.625 -23.328125 L 18.53125 -23.328125 L 18.53125 -17.09375 Z M 0.625 -17.09375 "/></g></g></g><g fill="#ffffff" fill-opacity="1"><g transform="translate(186.468594, 256.49998)"><g><path d="M 18 0 L 18 -13.296875 C 18 -14.515625 17.625 -15.5 16.875 -16.25 C 16.125 -17 15.171875 -17.375 14.015625 -17.375 C 13.210938 -17.375 12.503906 -17.207031 11.890625 -16.875 C 11.285156 -16.539062 10.804688 -16.0625 10.453125 -15.4375 C 10.109375 -14.8125 9.9375 -14.097656 9.9375 -13.296875 L 7.109375 -14.6875 C 7.109375 -16.507812 7.488281 -18.109375 8.25 -19.484375 C 9.019531 -20.859375 10.09375 -21.921875 11.46875 -22.671875 C 12.84375 -23.429688 14.425781 -23.8125 16.21875 -23.8125 C 18.039062 -23.8125 19.640625 -23.429688 21.015625 -22.671875 C 22.398438 -21.921875 23.46875 -20.878906 24.21875 -19.546875 C 24.96875 -18.222656 25.34375 -16.679688 25.34375 -14.921875 L 25.34375 0 Z M 2.59375 0 L 2.59375 -34.84375 L 9.9375 -34.84375 L 9.9375 0 Z M 2.59375 0 "/></g></g></g><g fill="#ffffff" fill-opacity="1"><g transform="translate(213.924548, 256.49998)"><g><path d="M 11.71875 0 L 0.8125 -33.890625 L 8.296875 -33.890625 L 16.265625 -7.828125 L 13.34375 -7.828125 L 21.125 -33.890625 L 27.03125 -33.890625 L 34.796875 -7.828125 L 31.921875 -7.828125 L 39.84375 -33.890625 L 47.28125 -33.890625 L 36.390625 0 L 30.484375 0 L 22.65625 -26.0625 L 25.4375 -26.0625 L 17.609375 0 Z M 11.71875 0 "/></g></g></g><g fill="#ffffff" fill-opacity="1"><g transform="translate(258.996447, 256.49998)"><g><path d="M 12.34375 0.484375 C 10.195312 0.484375 8.28125 -0.0390625 6.59375 -1.09375 C 4.914062 -2.15625 3.585938 -3.597656 2.609375 -5.421875 C 1.640625 -7.242188 1.15625 -9.320312 1.15625 -11.65625 C 1.15625 -14 1.640625 -16.082031 2.609375 -17.90625 C 3.585938 -19.726562 4.914062 -21.164062 6.59375 -22.21875 C 8.28125 -23.28125 10.195312 -23.8125 12.34375 -23.8125 C 13.90625 -23.8125 15.316406 -23.503906 16.578125 -22.890625 C 17.847656 -22.285156 18.878906 -21.445312 19.671875 -20.375 C 20.472656 -19.300781 20.925781 -18.078125 21.03125 -16.703125 L 21.03125 -6.625 C 20.925781 -5.25 20.484375 -4.023438 19.703125 -2.953125 C 18.921875 -1.878906 17.890625 -1.035156 16.609375 -0.421875 C 15.328125 0.179688 13.90625 0.484375 12.34375 0.484375 Z M 13.828125 -6.140625 C 15.390625 -6.140625 16.648438 -6.660156 17.609375 -7.703125 C 18.578125 -8.742188 19.0625 -10.0625 19.0625 -11.65625 C 19.0625 -12.75 18.84375 -13.710938 18.40625 -14.546875 C 17.976562 -15.378906 17.367188 -16.023438 16.578125 -16.484375 C 15.796875 -16.953125 14.894531 -17.1875 13.875 -17.1875 C 12.851562 -17.1875 11.945312 -16.953125 11.15625 -16.484375 C 10.375 -16.023438 9.75 -15.378906 9.28125 -14.546875 C 8.820312 -13.710938 8.59375 -12.75 8.59375 -11.65625 C 8.59375 -10.601562 8.816406 -9.660156 9.265625 -8.828125 C 9.710938 -7.992188 10.335938 -7.335938 11.140625 -6.859375 C 11.941406 -6.378906 12.835938 -6.140625 13.828125 -6.140625 Z M 18.765625 0 L 18.765625 -6.28125 L 19.875 -11.953125 L 18.765625 -17.609375 L 18.765625 -23.328125 L 25.96875 -23.328125 L 25.96875 0 Z M 18.765625 0 "/></g></g></g><g fill="#ffffff" fill-opacity="1"><g transform="translate(287.556412, 256.49998)"><g><path d="M 9.9375 0 L 0.046875 -23.328125 L 7.96875 -23.328125 L 14.6875 -3.890625 L 11.234375 -3.890625 L 17.953125 -23.328125 L 25.734375 -23.328125 L 15.84375 0 Z M 9.9375 0 "/></g></g></g><g fill="#ffffff" fill-opacity="1"><g transform="translate(312.708372, 256.49998)"><g><path d="M 14.109375 0.53125 C 11.578125 0.53125 9.328125 0.0078125 7.359375 -1.03125 C 5.398438 -2.070312 3.859375 -3.519531 2.734375 -5.375 C 1.617188 -7.226562 1.0625 -9.320312 1.0625 -11.65625 C 1.0625 -14 1.613281 -16.085938 2.71875 -17.921875 C 3.820312 -19.765625 5.316406 -21.210938 7.203125 -22.265625 C 9.085938 -23.328125 11.210938 -23.859375 13.578125 -23.859375 C 15.890625 -23.859375 17.921875 -23.359375 19.671875 -22.359375 C 21.429688 -21.367188 22.816406 -19.992188 23.828125 -18.234375 C 24.835938 -16.472656 25.34375 -14.457031 25.34375 -12.1875 C 25.34375 -11.769531 25.316406 -11.328125 25.265625 -10.859375 C 25.222656 -10.398438 25.140625 -9.867188 25.015625 -9.265625 L 4.890625 -9.21875 L 4.890625 -14.25 L 21.890625 -14.296875 L 18.71875 -12.1875 C 18.6875 -13.53125 18.476562 -14.640625 18.09375 -15.515625 C 17.707031 -16.398438 17.140625 -17.070312 16.390625 -17.53125 C 15.640625 -18 14.71875 -18.234375 13.625 -18.234375 C 12.476562 -18.234375 11.476562 -17.96875 10.625 -17.4375 C 9.78125 -16.914062 9.125 -16.175781 8.65625 -15.21875 C 8.195312 -14.257812 7.96875 -13.09375 7.96875 -11.71875 C 7.96875 -10.332031 8.210938 -9.148438 8.703125 -8.171875 C 9.203125 -7.203125 9.90625 -6.453125 10.8125 -5.921875 C 11.726562 -5.398438 12.8125 -5.140625 14.0625 -5.140625 C 15.21875 -5.140625 16.257812 -5.335938 17.1875 -5.734375 C 18.113281 -6.140625 18.925781 -6.738281 19.625 -7.53125 L 23.65625 -3.5 C 22.507812 -2.15625 21.117188 -1.144531 19.484375 -0.46875 C 17.859375 0.195312 16.066406 0.53125 14.109375 0.53125 Z M 14.109375 0.53125 "/></g></g></g></svg>